<?xml version="1.0" encoding="UTF-8" standalone="no"?>
<!-- Created with Inkscape (http://www.inkscape.org/) -->

<svg
   version="1.1"
   id="svg1"
   width="275"
   height="275"
   viewBox="0 0 275 275"
   sodipodi:docname="root logo only o - faded.svg"
   inkscape:version="1.3 (0e150ed, 2023-07-21)"
   inkscape:export-filename="root logo only o - faded purple strong yellow.png"
   inkscape:export-xdpi="300"
   inkscape:export-ydpi="300"
   xmlns:inkscape="http://www.inkscape.org/namespaces/inkscape"
   xmlns:sodipodi="http://sodipodi.sourceforge.net/DTD/sodipodi-0.dtd"
   xmlns="http://www.w3.org/2000/svg"
   xmlns:svg="http://www.w3.org/2000/svg">
  <defs
     id="defs1" />
  <sodipodi:namedview
     id="namedview1"
     pagecolor="#505050"
     bordercolor="#eeeeee"
     borderopacity="1"
     inkscape:showpageshadow="0"
     inkscape:pageopacity="0"
     inkscape:pagecheckerboard="0"
     inkscape:deskcolor="#505050"
     showgrid="false"
     inkscape:zoom="2.2898563"
     inkscape:cx="132.75942"
     inkscape:cy="120.96829"
     inkscape:window-width="1512"
     inkscape:window-height="916"
     inkscape:window-x="0"
     inkscape:window-y="38"
     inkscape:window-maximized="0"
     inkscape:current-layer="layer4"
     showguides="true">
    <sodipodi:guide
       position="-59.384239,137.5"
       orientation="0,1"
       id="guide1"
       inkscape:locked="false"
       inkscape:label=""
       inkscape:color="rgb(0,134,229)" />
    <sodipodi:guide
       position="137.5,282.69796"
       orientation="-1,0"
       id="guide3"
       inkscape:locked="false"
       inkscape:label=""
       inkscape:color="rgb(0,134,229)" />
  </sodipodi:namedview>
  <g
     inkscape:groupmode="layer"
     id="layer4"
     inkscape:label="mask">
    <circle
       style="fill:#8783f8;fill-opacity:1"
       id="path5"
       cx="137.5"
       cy="137.5"
       r="134" />
  </g>
  <g
     inkscape:groupmode="layer"
     id="layer3"
     inkscape:label="root">
    <path
       id="path2"
       style="display:inline;fill:#e9ee1c;fill-opacity:1"
       d="m 136.6097,13.090912 c -8.38625,0.182626 -16.75858,1.249539 -24.83203,3.099609 l -11.7461,2.732422 -6.289056,2.367187 -6.28711,2.365235 -5.46484,2.75 -5.46485,2.748047 -8.21093,5.328125 c -13.40508,6.947416 -27.44758,24.999864 -31.46094,30.398437 l -7.32813,9.855469 -3.24218,5.189453 c -7.27816,11.679202 -11.19266,25.407614 -12.82422,38.982424 l -1.3711,11.5 0.0449,10 c -0.31468,4.88531 -0.14102,9.37534 1.25,14 l 1.20312,4 12.41992,0.73242 10.07031,1.04883 2.61524,0.28125 1.83398,0.2793 2.62696,0.0801 2.6289,0.0781 0.98047,-1.25 0.98242,-1.25 4.66016,-10.25391 4.66016,-10.2539 4.47851,-7.57617 4.48047,-7.57618 7.49805,-9.23437 4.63086,-4.75391 0.41406,-0.42383 5.95898,-5.71679 7.85157,-5.867192 c 4.48855,-4.098489 9.600946,-6.706764 14.999996,-9.300781 5.74797,-3.573033 12.14691,-4.513427 18.64843,-5.917969 9.94267,-2.472972 19.1449,-5.123912 29.39649,-5.505859 l 2.28906,-0.119141 h 6.44727 l 0.69531,-0.371094 2.46484,-0.128906 5.10352,-8.058594 5.10351,-8.058594 5.7793,-7.675781 5.77734,-7.677734 5.55664,-5.511719 5.55665,-5.511719 -0.41016,-1.226562 -0.4082,-1.226563 -4.92579,-2.917968 -4.92578,-2.917969 -10,-3.769531 -10,-3.767579 -9,-1.791015 c -8.12953,-1.686044 -16.52974,-2.387704 -24.91598,-2.205078 z m 81.55078,29.628906 -2.88477,0.632812 -2.88476,0.634766 -6.35547,6.412109 -6.35742,6.414063 0.92578,1.966797 0.92383,1.966797 13.92187,14.597656 13.92188,14.595703 5.07812,2.962891 5.07813,2.960937 1.20507,0.02148 1.20508,0.02148 -1.35742,-3.845703 -1.35742,-3.847656 -1.96484,-3.902344 -1.9629,-3.904297 -3.77734,-11 -3.77734,-11 -2.70508,-6 -2.70703,-6 -2.08399,-1.84375 z m -27.03125,22.1875 -2.42578,3.25 -2.42578,3.25 -1.22266,2.367187 -1.22266,2.367188 1.44727,1.447266 1.44727,1.447265 6.90039,1.03711 6.90039,1.037109 5.5,1.300781 5.5,1.298828 1.75,0.09766 1.75,0.09961 v -1 -1 h -0.95899 -0.95703 l -8.44141,-8.5 -8.44335,-8.5 h -2.54883 z m 51.41406,7.556641 -0.32226,1.666015 -0.32032,1.666016 4.0625,10.076172 4.0625,10.076172 v 1.24414 1.244141 l 2.125,3.986325 2.125,3.98438 1.125,0.73437 1.125,0.73438 1.25,0.0156 1.25,0.0156 v -1.51367 -1.51563 l -3.4082,-8.451171 -3.4082,-8.453125 -4.83399,-7.755859 z m -83.01758,15.355468 -4.5,0.292969 -4.5,0.294922 -0.125,2.271484 -0.63281,0.63086 0.32422,4.929687 -0.23242,4.167971 0.69922,14.4707 0.69726,14.47071 1.77539,-3.47071 1.77539,-3.4707 4.15625,-15.98047 4.15625,-15.978516 -1.79687,-1.314454 z m -16.59765,0.65625 -4.31055,0.189453 -4.3125,0.1875 -8.14648,2.572266 -8.14649,2.574219 -1.64453,2.507812 -0.75586,1.15625 -0.0566,0.04492 0.002,0.03906 -0.83203,1.269531 0.0899,3.146482 0.0898,3.14844 4.49219,9.04883 4.49218,9.04688 5.15821,11.99999 5.16015,12 4.96647,11.1798 4.00391,10.53939 3.61328,7.85101 2.65072,5.9298 h 1.24609 1.24805 l 0.69922,-3.72656 0.69922,-3.72657 -1.22461,-10.52343 -1.22266,-10.52344 -1.41015,-15 -1.40821,-14.99999 -1.0664,-6 -1.06836,-6 -0.83008,-11.29298 -0.83203,-11.294918 -0.67188,-0.671875 z m 33.25,1.408203 -2.16797,5.761719 -2.16797,5.761721 -0.54297,3.26953 -0.54101,3.27149 1.38281,-0.54688 1.38476,-0.54687 2.25,-5.8379 2.25,-5.837888 V 93.10263 91.024505 l -0.92382,-0.570312 z m 7.89453,1.023438 -1.69531,2.585937 -1.69532,2.587891 -0.6582,4.339844 -0.6582,4.3418 0.93554,1.66992 0.9336,1.66992 2.64648,-0.46875 2.64453,-0.4707 6.5,-1.63672 6.5,-1.63672 3.5,-1.11914 3.5,-1.11719 1.26172,-1.00586 1.26367,-1.005857 -1.12695,-1.357422 -1.125,-1.355469 -9.39844,-3.011718 -9.39843,-3.009766 h -1.96485 z m -77.98828,11.917972 -2.94922,1.52539 c -2.68809,0.90585 -3.643636,2.54954 -5.162106,4.79101 -1.76067,3.21577 -4.54019,5.49089 -7.1543,7.98829 l -4.27929,7 0.66601,2.27734 3.10547,4.5 3.10742,4.5 8.455076,11.5 8.45508,11.5 6.09961,8.24023 6.09765,8.24024 6.5,8.47656 6.5,8.47656 3.28125,4.53321 c 1.81883,3.26435 3.306,4.20703 6.65039,5.22461 l 3.16797,-0.69141 1.49805,-1.00195 0.90234,-1.39844 0.39453,-1.80664 -0.39453,-1.91016 -1.33671,-3.27619 -1.5506,-3.65753 -2.32032,-4.94909 -1.89198,-4.5 -2.56054,-5.5 -2.56055,-5.5 -7.28906,-15 -7.28711,-15 -8.13281,-16.71094 -7.06836,-14.52344 v -0.0195 l -0.0156,-0.0137 -1.04883,-2.1543 -0.93945,-0.58007 z m 107.59765,1.08203 -6.07812,2.41602 -6.07813,2.41406 -11.31836,2.96289 c -5.48732,1.18107 -10.22478,1.91745 -14.22461,5.74805 -3.64314,2.66592 -4.46262,6.81733 -6.02734,10.87109 -2.51624,4.84479 -3.35946,9.78625 -4.10351,15.08789 -1.80426,11.05021 -1.09465,22.33756 -1.17774,33.5 -0.88412,10.47821 2.23841,21.4978 -2.44922,31.11719 -0.95966,2.72406 -2.26131,4.62935 -4.33008,6.5 -3.86587,4.3027 -23.95868,1.42771 -27.86914,0.45703 -7.35542,-1.39109 -13.82169,-5.37871 -20.5,-8.59961 l -14.999996,-7.23438 -8.64648,-3.57226 -8.64649,-3.57227 -8.01953,-2.04883 -8.01953,-2.04687 h -2.13476 -2.13477 l -1.41797,3.39258 -1.41601,3.39258 -2.03321,11.28125 -2.03125,11.2832 v 3.39062 3.39063 l 1.09766,2.05078 1.09766,2.05078 3.54101,3.13281 3.54297,3.13477 8.10938,5.83984 c 4.73909,4.06341 10.0912,6.83793 15.61132,9.61524 5.44027,3.36138 11.45324,4.99219 17.499996,6.85937 5.37323,2.08306 10.84783,3.21536 16.5,4.07813 6.7911,1.03866 25.22004,2.17122 42.71289,-0.58789 l 2.96289,-0.23047 1.71485,-0.60547 c 3.30278,-0.67155 6.54906,-1.45066 9.60937,-2.46875 l 12.5,-4.29297 5.5,-2.86523 5.5,-2.86524 9,-5.65429 c 8.30768,-4.07562 14.11857,-10.82513 20.52344,-17.29297 5.70968,-5.24324 10.87218,-10.65501 15.12305,-17.08203 l 3.60156,-5.44727 3.76367,-7.5 3.76563,-7.5 2.35937,-6.26758 c 2.31359,-4.75977 3.00659,-9.85333 3.93555,-15 l 1.57617,-8.73242 1.02734,-7.29883 c 0.89715,-3.75302 1.0657,-7.10516 0.36915,-10.81055 -0.10619,-3.4186 -1.94017,-4.92888 -4.12696,-7.3496 l -3.46875,-3.83985 -11.95898,-9.08594 -11.95899,-9.08593 -6.1875,-2.51563 c -2.90355,-1.38805 -5.51726,-2.51367 -8.6875,-2.51367 z m -133.410146,29 -1.37305,1.65234 -1.37305,1.6543 -3.25,5.5957 -3.25,5.59766 -3.54101,7.46484 -3.54102,7.4668 0.29102,1.9668 0.29101,1.96679 11,3.8086 11,3.80859 15.999996,7.95117 16,7.95118 3.75,0.0586 3.75,0.0566 v -0.92383 -0.92383 l -9.20703,-11.32617 -9.20508,-11.32617 -7.59179,-9.5 -7.593746,-9.5 -4.75196,-6.75 -4.75195,-6.75 h -1.32617 z m -56.08203,48 -1.58204,0.60742 -1.58203,0.60742 -0.0176,1.14258 -0.0156,1.14258 5.16992,11.25 5.16992,11.25 h 0.72461 0.72461 l 1.04492,-1.25781 1.04297,-1.25977 1.57813,-6.80273 1.57812,-6.80469 v -2.69922 l 0.002,-0.008 v -2.04883 -2.04883 l -0.002,-0.002 v -0.99805 l -1.93359,-1.03515 -1.93555,-1.03516 h -4.98242 z"
       inkscape:label="logo"
       sodipodi:nodetypes="scccccccccccccsccccccccccccccccccccccccccccccccccccccscccccccccccccccccccccccccccccccccccccccccccccccccccccccccccccccccccccccccccccccccccccccccccccccccccccccccccccccccccccccccccccccccccccccccccccccccccccccccccccccccccccccccccccccccccccccccccccccccscccccccccccccccccccccccccccccccccccscccsccccsccccccccccccccccccccccccccccccccccccccccccccccccc" />
  </g>
</svg>
