<?xml version="1.0" encoding="UTF-8" standalone="no"?>
<!-- Created with Inkscape (http://www.inkscape.org/) -->

<svg
   version="1.1"
   id="svg1"
   width="1061.5221"
   height="248.90605"
   viewBox="0 0 1061.5221 248.90605"
   sodipodi:docname="root logo.svg"
   inkscape:version="1.3 (0e150ed, 2023-07-21)"
   inkscape:export-filename="root logo.png"
   inkscape:export-xdpi="300"
   inkscape:export-ydpi="300"
   xmlns:inkscape="http://www.inkscape.org/namespaces/inkscape"
   xmlns:sodipodi="http://sodipodi.sourceforge.net/DTD/sodipodi-0.dtd"
   xmlns="http://www.w3.org/2000/svg"
   xmlns:svg="http://www.w3.org/2000/svg">
  <defs
     id="defs1" />
  <sodipodi:namedview
     id="namedview1"
     pagecolor="#505050"
     bordercolor="#eeeeee"
     borderopacity="1"
     inkscape:showpageshadow="0"
     inkscape:pageopacity="0"
     inkscape:pagecheckerboard="0"
     inkscape:deskcolor="#505050"
     showgrid="false"
     inkscape:zoom="0.56254094"
     inkscape:cx="691.50523"
     inkscape:cy="309.31082"
     inkscape:window-width="1248"
     inkscape:window-height="426"
     inkscape:window-x="0"
     inkscape:window-y="38"
     inkscape:window-maximized="0"
     inkscape:current-layer="layer1" />
  <g
     inkscape:groupmode="layer"
     id="layer1"
     inkscape:label="Image 1"
     style="display:inline"
     transform="translate(-16.708416,586.58997)">
    <g
       id="g4702"
       transform="translate(-18.185843,-593.74564)"
       style="display:inline">
      <path
         style="display:inline;fill:#e9ee1c;fill-opacity:1"
         d="m 717,255.86986 -4.5,-0.0848 -9.0786,-1.32545 -9.0786,-1.32546 -9.25798,-2.66344 -9.25799,-2.66345 -7.16341,-3.29327 -7.16342,-3.29326 -7.33068,-5.00408 -7.33068,-5.00408 -6.41932,-5.67088 L 634,219.87085 v -5.79618 -5.79619 l 2.04226,-10.38924 2.04225,-10.38924 0.99694,-2.38307 0.99694,-2.38308 5.23241,0.61497 5.23242,0.61497 6.97839,2.38996 6.97839,2.38996 10.61638,4.55198 10.61639,4.55197 9.88361,4.93994 9.88362,4.93994 6.5,1.6686 6.5,1.66861 8,0.59252 8,0.59251 3.68372,-1.54617 3.68371,-1.54617 2.56901,-3.88203 2.569,-3.88203 0.88808,-7.07267 0.88808,-7.07267 -0.51443,-14.87402 -0.51442,-14.87402 1.1126,-12.05125 1.1126,-12.05126 2.11479,-6.44199 2.1148,-6.44198 1.86833,-3.66223 1.86833,-3.66224 2.43091,-1.91215 2.43091,-1.91216 12.08803,-3.21406 12.08802,-3.21407 4.59187,-1.96831 L 796.16581,99 h 2.93697 2.93696 l 5.82417,2.36657 5.82417,2.36657 11.90596,9.05665 11.90596,9.05665 3.39136,3.52023 3.39136,3.52024 0.461,4.80654 0.461,4.80655 -2.21474,14 -2.21474,14 -2.93867,7.6939 -2.93867,7.6939 -5.04638,9.3061 -5.04637,9.3061 -3.27978,4 -3.27978,4 -9.8728,10.05706 -9.87279,10.05706 -12.5,7.82714 -12.5,7.82714 -13.91277,4.90279 -13.91277,4.9028 -12.08723,0.94031 -12.08723,0.94032 z m 286.5,-8.73827 -6,0.36841 -7.5,-0.28149 -7.5,-0.28148 -1.25,-1.65965 -1.25,-1.65964 V 146.93132 50.244889 L 978.75,49.372445 977.5,48.5 l -32,0.5 -32,0.5 -7.70374,-0.5 -7.70374,-0.5 -1.13356,-1.137302 -1.13356,-1.137303 -0.1627,-14.763475 -0.1627,-14.763476 1.04896,-1.434531 1.04897,-1.434532 97.93688,0.121157 97.93689,0.121156 0.6448,0.714153 0.6447,0.714153 0.5073,15.290726 0.5072,15.290725 -1.4791,1.479108 -1.4791,1.479107 -39.5323,-0.06296 -39.5323,-0.06296 -0.6264,0.626209 -0.6265,0.626208 -0.2692,97.310407 -0.2692,97.31041 -1.2308,0.9881 -1.2308,0.9881 z m -586,-0.27157 -3,-0.13831 -10.45225,-0.85741 -10.45225,-0.85741 -5.04775,-1.37881 -5.04775,-1.37881 -7.5,-2.69066 -7.5,-2.69065 -8,-3.85508 -8,-3.85508 -13.24294,-10.65866 -13.24294,-10.65866 -2.84869,-3.45596 -2.8487,-3.45596 -4.58003,-8.71428 -4.58004,-8.71428 -4.04795,-10.19385 -4.04795,-10.19384 -2.03038,-9.96324 L 299,143.18583 v -11.06264 -11.06264 l 1.58075,-10.78028 1.58076,-10.78027 2.51845,-7.5 2.51845,-7.5 4.51818,-8.5 4.51818,-8.5 4.25687,-6 4.25687,-6 7.87574,-7.501743 7.87575,-7.501744 9.20306,-6.151009 9.20306,-6.151009 12.79694,-5.028989 12.79694,-5.02899 11.5,-2.195659 11.5,-2.19566 13.5,0.676292 13.5,0.676291 9,2.065333 9,2.065332 7.93085,3.028208 7.93086,3.028208 8.78213,5.013942 8.78214,5.013942 9.28701,8.224755 9.28701,8.224755 3.5,4.357759 3.5,4.357759 2.80714,4.011113 2.80715,4.011114 4.41966,6.5 4.41967,6.5 3.43643,10 3.43643,10 1.58676,9.42622 1.58676,9.42621 v 10.64889 10.6489 l -2.03381,11.29482 -2.03381,11.29482 -2.99035,7.75423 -2.99035,7.75423 -5.37102,8.87584 -5.37102,8.87584 -3.70163,4.28108 -3.70163,4.28109 -8.52791,7.21891 -8.52792,7.21892 -5.60982,4.2951 -5.60982,4.2951 -6.01545,3.35059 -6.01546,3.35059 -12.65268,4.57484 -12.65267,4.57484 -10.84733,1.02863 -10.84732,1.02864 z m -0.88099,-32.98682 12.11901,0.1268 8.88099,-1.50102 8.88099,-1.50102 8.31302,-4.1569 8.31303,-4.15691 4.68697,-3.48728 4.68698,-3.48729 5.34147,-5.10479 5.34148,-5.10479 3.79892,-5.53374 3.79893,-5.53374 3.62322,-7.10953 3.62321,-7.10954 2.0489,-7.85673 2.0489,-7.85672 0.15625,-15 0.15625,-15 -1.76109,-6.5 -1.76108,-6.5 -2.4943,-5.5 -2.49431,-5.5 -4.6769,-6.822996 -4.67691,-6.822996 L 474.53647,68.757699 464.5,60.661391 454.49308,55.869674 444.48616,51.077957 435.49308,48.922696 426.5,46.767435 l -12,0.545109 -12,0.545109 -8,2.057412 -8,2.057413 -8.5,4.252784 -8.5,4.252785 -7.16682,4.777681 -7.16682,4.777681 -6.89567,7.383821 -6.89568,7.383821 -3.6944,7.349474 L 333.9862,99.5 331.4931,111.88752 329,124.27504 l 0.003,5.61248 0.003,5.61248 1.53219,8.75921 1.53218,8.75922 1.95094,6.3164 1.95094,6.3164 5.53347,8.92438 5.53347,8.92439 6.77157,6.5 6.77157,6.5 8.1126,4.7609 8.11259,4.7609 7.53715,3.04326 7.53715,3.04325 6.3089,0.81904 6.30889,0.81904 z M 50.872445,241.98469 37.244889,242 36.178099,240.7146 35.111308,239.42919 35.305654,130.79778 35.5,22.166363 l 0.599977,-0.599826 0.599978,-0.599825 63.400025,-0.06774 63.40002,-0.06774 7.65411,2.018947 7.65412,2.018948 5.34588,2.699958 5.34589,2.699959 4.5,3.048784 4.5,3.048785 4.31814,4.566692 4.31814,4.566692 3.57777,5.870998 3.57776,5.870998 2.39628,7.629002 2.39629,7.629002 0.57759,8.5 0.57758,8.5 -1.68579,9 -1.6858,9.000003 -3.57793,7.5 -3.57794,7.5 -8.10605,8 -8.10604,8 -10,5.5576 -10,5.55761 -0.32994,2.83248 -0.32994,2.83248 2.5964,7.31364 2.59639,7.31364 4.17605,7.79627 4.17604,7.79628 6.31409,8.64999 6.3141,8.64998 5.10491,3.27581 5.10491,3.27582 9.48248,0.16725 9.48247,0.16724 0.89071,1.40696 0.8907,1.40695 0.0153,13.55 0.0153,13.55 -1.2,1.2 -1.2,1.2 -5.55,-0.0178 -5.55,-0.0178 -8.64597,-0.90999 -8.64597,-0.90998 -7.81025,-3.25142 -7.81025,-3.25141 -5.04378,-5.07084 L 173.5,223.5 l -5.38459,-7 -5.38459,-7 -3.92576,-8.39876 -3.92576,-8.39877 -9.46317,-19.60123 -9.46316,-19.60124 -0.83443,-1.5 -0.83442,-1.5 -18.58149,-0.27184 -18.581488,-0.27185 -8.982497,1.96046 -8.982497,1.96046 -5.117983,2.2017 -5.117983,2.2017 -1.190838,2.10968 -1.190837,2.10969 0.259748,38.92306 0.259748,38.92306 -1.279002,0.81163 L 64.5,241.96937 Z M 70.790006,123.3453 73.5,122.67258 l 3.304627,-1.37253 3.304626,-1.37254 5.048217,-0.95737 5.048217,-0.95738 30.647153,-0.0525 30.64716,-0.0526 7,-0.97354 7,-0.97355 5,-2.43254 5,-2.43255 3.80228,-4.55075 3.80228,-4.55074 1.57012,-3.747002 1.57011,-3.746998 0.49354,-8 0.49354,-8 -1.19236,-4.390665 -1.19235,-4.390664 -4.91276,-5.194517 -4.91276,-5.194517 -4.91373,-2.674389 -4.91373,-2.674389 L 116.34709,54.24043 67.5,54.5 l -0.614393,33 -0.614393,33 0.9044,1.75901 0.904399,1.75901 z m 545.294694,75.94708 -0.76946,0.79238 -0.97102,-1.29238 -0.97101,-1.29238 -4.29591,-9.66863 -4.29592,-9.66862 0.66833,-1.08138 L 606.11803,176 h 5.50673 5.50672 l 1.93426,1.03518 1.93426,1.03519 v 2.0482 2.0482 l -2.07292,8.16662 -2.07291,8.16661 z m 112.8757,-5.49456 -3.53961,0.29782 -16.46039,-22.15262 -16.4604,-22.15263 -10.76067,-14.51361 -10.76067,-14.51362 -0.62969,-2.50888 4.43524,-7.13158 5.06493,-4.6227 1.72393,-2.80111 1.72393,-2.80111 2.92333,-1.511719 2.92334,-1.511716 1.42816,1.185272 L 692,100.24489 v 0.8101 0.8101 l 7.56013,15.81745 7.56014,15.81746 5.38908,11 5.38909,11 4.00614,8.75355 4.00613,8.75356 0.67627,3.74644 0.67627,3.74645 0.99334,2 0.99334,2 1.95741,2.15214 1.95741,2.15213 -0.33237,2.34787 L 732.5,193.5 Z m -24.7104,-10.83475 -2.75,-0.0369 -14.95205,-7.4395 -14.95206,-7.4395 -6.04794,-2.14654 -6.04795,-2.14654 -5.75,-1.96539 -5.75,-1.96538 v -2.27578 -2.27577 l 5.50817,-10.74298 5.50817,-10.74297 2.05993,-2.8929 L 663.13619,128 h 1.40143 1.40143 l 4.90937,7.25 4.90937,7.25 8.02517,10 8.02516,10 7.59594,9.43979 7.59594,9.4398 v 0.8102 V 183 Z m 29.91694,-7.56624 -1.08721,0.67193 -3.0366,-5.28438 -3.03659,-5.28438 -1.65311,-4.5 -1.65311,-4.5 -4.28625,-11 -4.28624,-11 -4.12507,-9.5 -4.12507,-9.5 -4.07115,-7.90699 -4.07114,-7.906998 -0.10339,-3.942948 -0.10339,-3.942947 2.33457,-1.890419 2.33457,-1.890419 6.5402,-2.020061 6.54019,-2.020061 3.85551,-0.61652 3.8555,-0.616521 1.50542,1.249387 L 727,85.244889 v 6.20142 6.201421 l 1.52391,10.19184 1.52391,10.19183 2.03408,18.7343 2.03408,18.7343 0.56908,9.61245 0.56909,9.61244 z M 625.69088,153.86639 621.5,153.73277 l -5,-0.77878 -5,-0.77878 -6.65217,-0.0876 L 598.19565,152 597.09783,148.85078 596,145.70155 l 0.0178,-11.60077 0.0178,-11.60078 0.92922,-8.83233 0.92921,-8.83233 1.64,-5.167672 1.64001,-5.167668 2.55158,-7 2.55158,-7 4.53181,-7.5 4.53182,-7.5 2.65939,-3 2.65939,-3 3.69903,-5.173203 3.69902,-5.173204 7.92754,-7.45766 7.92754,-7.457661 6.83591,-4.503517 6.8359,-4.503516 7.95776,-3.974135 7.95776,-3.974135 8,-2.597324 8,-2.597324 L 700.30076,10.04416 711.10153,8 l 9.19923,2.364e-4 9.19924,2.365e-4 11.5,1.9203763 11.5,1.9203758 8.98311,3.160809 8.98311,3.160809 6.26689,3.504644 L 783,25.172132 v 0.803901 0.803902 l -5.2566,5.360033 -5.2566,5.360032 -7.10836,9.5 -7.10835,9.5 -3.24336,5.772786 -3.24337,5.772787 -1.82594,0.977213 L 748.13148,70 h -8.98351 -8.98351 l -14.33223,3.487927 -14.33223,3.487928 -5.18919,1.544003 -5.18918,1.544003 -9.31082,6.068372 L 672.5,92.200606 662.12586,102.8503 651.75172,113.5 l -4.49775,6.86353 -4.49775,6.86353 -6.43723,13.38647 L 629.88176,154 Z m 110.86096,-37.98236 -1.24819,2.38404 -0.62135,-6.38404 -0.62135,-6.38403 -0.65961,-10.049431 -0.65962,-10.049431 1.75808,-1.758079 3.21093,-1.200569 1.45284,0.55751 1.66822,0.01531 1.66821,0.01531 1.35395,0.857948 1.35395,0.857948 -3.70394,14.376739 L 737.80002,113.5 Z M 766.60868,101 h -2.49065 l -0.55306,-0.89488 -0.55307,-0.894884 0.99677,-5.255927 0.99676,-5.255927 1.11973,-1.349191 L 767.24489,86 h 2.12415 2.12414 l 7.60867,2.533918 7.60866,2.533918 1.89475,1.400868 1.89474,1.400867 -3.65215,1.53775 -3.65215,1.53775 -4.34785,0.666542 L 774.5,98.278154 771.79966,99.639077 769.09932,101 Z m 72.98053,0 h -1.4108 L 836.08921,96.684276 834,92.368551 v -0.98995 -0.98995 L 830.5,81.708797 827,73.028944 V 72.27782 71.526697 l 3.58661,5.325808 3.58661,5.325809 3.41339,8.466909 L 841,99.112133 V 100.05607 101 Z M 755.86709,99.45 755,100.4 V 99.603907 98.807815 L 756.61071,93.153907 758.22143,87.5 759.11071,86.55 760,85.6 v 1.521861 1.521861 L 758.36709,93.571861 756.73417,98.5 Z M 823.70564,89.977939 822.5,89.955878 817.42185,86.994614 812.34371,84.033351 798.42185,69.436148 784.5,54.838944 l -0.92402,-1.966989 -0.92401,-1.966989 6.35599,-6.412996 6.35599,-6.412997 2.88519,-0.633693 2.88518,-0.633693 2.0839,1.844206 2.0839,1.844207 2.70549,6 2.70549,6 3.77725,11 3.77724,11 1.96446,3.902757 1.96446,3.902757 1.35739,3.847243 L 824.91128,90 Z M 796.25,77.900748 794.5,77.801496 789,76.502448 783.5,75.2034 l -6.90033,-1.037739 -6.90032,-1.03774 -1.4473,-1.447296 -1.44729,-1.447295 1.2231,-2.366665 1.2231,-2.366665 2.42541,-3.25 2.42541,-3.25 h 2.5489 2.54891 l 8.44279,8.5 8.44279,8.5 H 797.04258 798 v 1 1 z"
         id="path4703"
         sodipodi:nodetypes="ccccccccccccccccccccccccccccccccccccccccccccccccccccccccccccccccccccccccccccccccccccccccccccccccccccccccccccccccccccccccccccccccccccccccccccccccccccccccccccccccccccccccccccccccccccccccccccccccccccccccccccccccccccccccccccccccccccccccccccccccccccccccccccccccccccccccccccccccccccccccccccccccccccccccccccccccccccccccccccccccccccccccccccccccccccccccccccccccccccccccccccccccccccccccccccccccccccccccccccccccccccccccccccccccccccccccccccccccccccccccccccccccccccccccccccccccccccccccccccccccccccccccccccccccccccccccccccccccccccccccccccccccccccccccccccccccccccccccccccccccccccccccccccccccccccccccccccccccccccccccccccccccccccccccccccccccccccccccccccccccccccc" />
      <path
         style="display:inline;fill:#e9ee1c;fill-opacity:1"
         d="m 717.5,254.83444 -7,-0.0637 -8.5,-1.32144 -8.5,-1.32143 -8,-2.20776 -8,-2.20776 -8.22746,-3.78073 -8.22745,-3.78073 -7.42036,-5.12968 -7.42035,-5.12969 -5.81161,-5.28146 -5.81161,-5.28146 0.13928,-5.41429 0.13928,-5.41428 2.04996,-11.31285 2.04997,-11.31284 0.57919,-0.93716 L 640.11803,184 h 3.83565 3.83565 l 6.68253,2.06402 6.68252,2.06402 13.17281,5.81279 13.17281,5.81278 10,4.57428 10,4.57428 5.9601,1.54891 5.9601,1.54892 h 9.94473 9.94474 l 3.69813,-3.88754 3.69814,-3.88755 1.14703,-4.55527 L 749,195.11436 v -22.59659 -22.5966 l 1.06731,-9.57168 1.0673,-9.57169 2.89521,-7.51874 2.8952,-7.51873 1.7763,-1.96279 1.7763,-1.96279 1.97958,-1.05944 1.97958,-1.05943 12.08613,-3.22118 12.08613,-3.22117 3.14582,-1.62676 3.14582,-1.62677 4.29966,7.9e-4 4.29966,7.9e-4 6.06976,2.8715 6.06975,2.87151 3.43025,2.89882 3.43024,2.89882 7.71765,5.81002 7.71764,5.81002 3.03236,3.45366 3.03235,3.45366 -2.4e-4,6.21521 -2.3e-4,6.2152 -1.90517,11.5 -1.90517,11.5 -2.88425,8.06076 -2.88426,8.06077 -5.37771,9.7074 -5.37771,9.70739 -10.5215,11.5043 -10.5215,11.50429 -5.06113,3.78757 -5.06113,3.78757 -11,6.60893 -11,6.60893 -12.45778,4.21626 -12.45779,4.21626 -10.54221,0.81387 -10.54222,0.81387 z m 281.34724,-8.29757 -10.34724,0.33135 -3.45787,-0.68411 -3.45787,-0.68411 -0.55821,-2.37712 -0.55821,-2.37713 0.23359,-93.17099 0.23358,-93.171002 -0.79023,-2.951879 L 979.35454,48.5 943.985,48.817394 l -35.36953,0.317395 -4.83372,-0.664806 -4.83372,-0.664806 -1.50019,-1.500191 -1.50019,-1.500191 0.27618,-14.581633 0.27617,-14.581633 2.5,-0.652165 2.5,-0.652164 95.78602,0.0814 95.78598,0.0814 0.714,1.155469 0.714,1.155468 V 32.155469 47.5 l -5.5,0.552564 -5.5,0.552564 -35.2232,-0.09358 -35.2232,-0.09358 -0.664,1.541011 -0.664,1.541012 -0.2407,96.327949 -0.2408,96.32794 -1.0248,1.02481 -1.0248,1.02482 z m -576.2547,-1.05072 -16.09254,0.40189 -7.5,-0.93629 -7.5,-0.93629 -8.5,-2.91633 -8.5,-2.91633 -7.83409,-3.11447 -7.83409,-3.11446 -5.16591,-3.30759 -5.16591,-3.30759 -12.07972,-10.06644 -12.07972,-10.06644 -3.02084,-4.85291 -3.02083,-4.8529 -3.18535,-5.79847 -3.18535,-5.79848 -4.43937,-11.48634 -4.43938,-11.48635 -1.60914,-9.21518 -1.60915,-9.21518 0.0411,-11 0.0411,-11 1.49004,-11 1.49004,-11 3.03922,-8.240179 3.03922,-8.240179 3.2196,-5.759821 3.21961,-5.759821 3.22464,-5.092776 3.22464,-5.092777 7.70208,-8.187359 7.70208,-8.18736 10.69478,-7.411487 10.69478,-7.411488 7.92298,-3.175679 7.92299,-3.175678 7,-2.442057 7,-2.442057 8,-1.439274 8,-1.439274 10.5,0.0062 10.5,0.0062 8,0.936999 8,0.937 11,3.397792 11,3.397792 3.5,1.769578 3.5,1.769578 7.88363,4.609546 7.88362,4.609547 9.27248,8.271408 9.27248,8.271409 5.43006,7.257086 5.43005,7.257086 5.02293,7.5 5.02293,7.5 3.08678,9.115308 3.08678,9.115307 1.66871,9.38469 1.66872,9.38469 0.0198,11 0.0198,11 -1.72197,10 -1.72198,10 -2.93609,8.5 -2.93609,8.5 -5.7163,9.5 -5.7163,9.5 -4.01006,4.39315 -4.01006,4.39316 -11,9.17872 -11,9.17873 -4.77044,3.24022 -4.77044,3.24023 -6.22956,2.91041 -6.22956,2.9104 -11.90746,4.06962 -11.90747,4.06962 z m -6.80038,-31.61132 18.29216,0.12517 7.62671,-1.57534 7.62672,-1.57534 6.58112,-3.5846 6.58113,-3.5846 4.5,-3.00745 4.5,-3.00745 8,-8.08261 8,-8.08261 4.77406,-8.5 4.77407,-8.5 2.39029,-8 2.39029,-8 0.65708,-4.81772 0.65707,-4.81773 -0.0317,-12.18227 -0.0317,-12.18228 -2.06501,-7.32863 -2.06502,-7.328632 -3.06714,-6.075987 -3.06715,-6.075988 -3.46471,-5.218225 -3.46471,-5.218226 -8.15982,-6.799413 -8.15983,-6.799413 -6.17349,-3.870765 -6.17349,-3.870766 -8.35953,-3.392116 -8.35953,-3.392116 -9,-1.684722 -9,-1.684721 -8.57309,0.596398 -8.57309,0.596398 -6.92691,1.465268 -6.92691,1.465268 -6.50443,2.45717 -6.50443,2.457169 -9.49557,5.351025 L 359.5,65.5 l -9.00702,9 -9.00702,9 -3.78236,7.192525 -3.78236,7.192524 -2.45156,10.807471 -2.45156,10.80748 -0.009,10.79216 -0.009,10.79216 1.52033,7.36037 1.52032,7.36037 1.96843,5.72134 1.96844,5.72135 5.4582,8.62612 5.4582,8.62613 5.55346,5.57597 5.55345,5.57598 10.24959,6.019 10.24958,6.01901 5.5,2.33375 5.5,2.33375 4,0.6961 4,0.69611 z M 52.5,241.68674 41.5,241.90319 39,241.15654 36.5,240.40989 36.245519,132.06281 35.991038,23.715725 37.157253,22.310522 38.323468,20.905319 102.41173,21.202659 166.5,21.5 l 8.93675,3.241118 8.93674,3.241119 5.44617,3.258881 5.44616,3.258882 5.88995,5.852862 5.88995,5.852861 3.91108,7.082686 3.91107,7.082686 2.19422,8.880206 2.19422,8.880205 -0.53273,10.184247 -0.53273,10.184247 -1.62587,6 -1.62588,6 -2.61817,5.40345 -2.61818,5.40345 -6.93454,7.30027 -6.93455,7.30027 -8.16683,4.6869 -8.16683,4.6869 -3.75,2.37357 -3.75,2.37357 0.0129,2.23581 0.0129,2.23581 1.98425,6.32994 1.98425,6.32993 5.00384,9.67007 5.00384,9.67006 6.74901,8.92465 6.74901,8.92466 5.21699,2.90321 5.21699,2.90322 8.48324,0.17213 8.48325,0.17213 1.07909,1.07933 1.0791,1.07933 -0.27933,13.92067 L 228.5,240.5 l -7.5,0.30655 -7.5,0.30656 -7.97431,-1.06535 -7.97432,-1.06534 -7.68531,-3.60649 -7.68531,-3.6065 -3.4304,-3.63471 -3.4304,-3.63472 -6.14041,-8.06319 -6.14041,-8.0632 -8.14123,-16.9368 -8.14123,-16.93681 -5.92189,-12.24188 -5.9219,-12.24188 -2.6264,-0.65919 -2.62641,-0.65918 -18.45051,0.6665 -18.450506,0.66651 -7.129527,1.6151 -7.129527,1.61509 -5.165324,2.27699 -5.165324,2.27699 -1.084676,2.02673 L 66,161.86852 v 39.00672 39.00673 l -1.25,0.79416 -1.25,0.79416 z M 67.979079,125 h 0.645745 l 8.937588,-3.17699 8.937588,-3.17699 33.5,-0.24817 33.5,-0.24818 5.96935,-0.64931 5.96935,-0.64931 5.18111,-2.45105 5.18111,-2.45106 3.64319,-4.44604 3.6432,-4.44605 2.06258,-4.662798 2.06258,-4.662802 0.14376,-8.115625 L 187.5,77.5 l -0.78799,-3.710984 -0.788,-3.710983 -5.09512,-5.574871 -5.09511,-5.574872 -4.61689,-2.714145 L 166.5,53.5 117.64625,53.213662 68.792494,52.927325 67.396247,54.086107 66,55.244889 v 34.210889 34.210892 l 0.666667,0.66666 L 67.333333,125 Z m 547.422851,72.69936 -0.92115,0.30705 -4.24039,-9.54582 L 606,178.91477 v -0.89 -0.88999 l 1.75,-0.53718 1.75,-0.53717 5,0.72874 5,0.72874 0.28667,1.99104 0.28668,1.99105 -1.87513,7.94615 -1.87513,7.94615 z M 728.3134,194 h -1.54375 l -2.3585,-2.75 -2.3585,-2.75 -15.47438,-21 -15.47439,-21 -5.30194,-6.93134 -5.30194,-6.93135 -4.75,-6.8963 -4.75,-6.89631 v -1.61194 -1.61194 l 4.75,-4.58755 4.75,-4.58756 3.18644,-3.80842 3.18644,-3.808418 1.57818,0.335564 1.57817,0.335564 8.60669,18 8.60669,18 5.80289,12 5.80289,12 3.13919,6.92759 3.13918,6.92758 0.80414,4.30433 0.80413,4.30433 2.45334,3.26808 2.45334,3.26809 0.68834,1.16938 0.68833,1.16938 -1.58062,1.58062 L 729.85714,194 Z m -25.14107,-12 h -1.82766 l -15.213,-7.5 -15.213,-7.5 h -0.98129 -0.98129 l -6.61636,-3 -6.61636,-3 h -1.7799 -1.7799 L 650.58179,160.39301 649,159.78602 v -2.51705 -2.51705 l 3.84843,-7.62596 3.84843,-7.62596 2.97143,-4.99976 2.97144,-4.99976 1.55707,-0.29986 1.55708,-0.29987 4.49905,6.79963 4.49905,6.79962 8.37401,10.43328 8.37401,10.43328 6.71993,8.56672 6.71994,8.56672 0.0301,0.75 0.03,0.75 z m 29.46432,-13.51776 -1.36336,1.86449 -1.76763,-2.69775 -1.76764,-2.69776 -4.7423,-12.72561 -4.74229,-12.72561 -4.1953,-9.5 -4.1953,-9.5 -5.43142,-11.32762 L 699,97.844762 v -2.199875 -2.199875 l 1.54348,-2.203623 1.54348,-2.203623 8.46401,-2.581683 8.46401,-2.581682 3.24251,0.312799 3.24251,0.3128 0.65112,9.253594 0.65112,9.253596 1.03545,4.7464 1.03545,4.74641 1.11997,11.5 1.11997,11.5 1.44346,12.7084 L 734,160.91679 v 2.85048 2.85047 z M 627.89282,153.65095 626.5,153.8019 l -4.5,-0.9448 -4.5,-0.9448 -8.66157,-0.26031 -8.66157,-0.26032 -1.50295,-1.24734 -1.50295,-1.24734 -0.69463,-8.33889 -0.69462,-8.33889 1.59739,-14.35961 1.59739,-14.3596 1.91673,-6 1.91673,-6 2.13206,-5.380973 2.13206,-5.380974 4.44665,-7.325136 4.44666,-7.325136 4.76631,-6.208455 4.76631,-6.208455 6.48722,-6.911215 6.48722,-6.911216 7.01278,-5.325867 7.01278,-5.325868 8.90327,-5.066951 8.90327,-5.066951 9.09673,-3.010983 9.09673,-3.010982 7.45501,-1.549792 7.45501,-1.549791 9.04499,-0.9562127 9.04499,-0.9562128 13,1.5781785 13,1.578179 10.5,3.545053 10.5,3.545054 5.5,2.821113 5.5,2.821113 1.49896,1.004126 1.49897,1.004125 -4.66579,4.787115 -4.66579,4.787114 -8.52468,11.433791 -8.52469,11.433792 -1.79987,3.566208 -1.79988,3.566209 -1.4136,1.75 -1.41361,1.75 h -8.9503 -8.95031 l -18.39614,4.486332 -18.39615,4.486331 -5.74856,2.905789 -5.74856,2.90579 -6.5,4.764622 -6.5,4.764621 -9.87324,10.093255 -9.87325,10.09326 -4.50957,6.96744 -4.50958,6.96744 -5.43189,11.53256 -5.43188,11.53256 -0.79248,1.5 -0.79248,1.5 z M 736.41095,112 h -0.47372 L 735.21862,110.25 734.5,108.5 V 96 83.5 l 3,-0.294053 3,-0.294054 1.94493,1.423172 1.94492,1.423172 -1.75474,6.370881 -1.75474,6.370882 -1.99785,6.75 -1.99786,6.75 z m 30.25738,-12 h -2.93167 l 0.53047,-3.75 0.53047,-3.75 1.07645,-2.75 1.07645,-2.75 h 2.54353 2.54353 l 7.195,2.513784 7.19501,2.513785 0.89357,0.893575 0.89358,0.893575 -1.95495,1.046258 -1.95496,1.046259 -6.32456,1.018542 -6.32457,1.018542 -1.02784,1.02784 L 769.6,100 Z m 72.80086,0 h -0.42308 l -1.62328,-2.477428 -1.62327,-2.477428 -0.74539,-3.272572 L 834.30878,88.5 833.61785,86 l -0.69092,-2.5 1.63233,2.871866 1.63232,2.871866 1.85035,5.378134 L 839.89228,100 Z M 758.66667,90.666667 758,91.333333 V 90 88.666667 l 0.66667,0.666666 L 759.33333,90 Z M 822.82363,87.935728 822.5,88.813206 817.97442,86.501489 813.44884,84.189771 798.72442,68.552414 784,52.915056 v -1.29902 -1.299021 L 790.41345,44.158507 796.82689,38 h 2.43157 2.43156 l 1.53848,1.75 1.53848,1.75 2.2395,4.451239 2.2395,4.451238 3.42687,10.048762 3.42688,10.048761 3.52376,8.279124 3.52376,8.279125 z M 831.5,81 H 831 V 80.5 80 h 0.5 0.5 v 0.5 0.5 z m -1,-2 H 830 V 78.5 78 h 0.5 0.5 v 0.5 0.5 z m -42.25,-4.126497 -2.75,-0.126497 -6.82208,-0.876897 -6.82209,-0.876897 -1.92791,-1.03179 L 768,70.929632 v -0.769035 -0.769036 l 2.97798,-4.69578 L 773.95595,60 l 2.27203,0.005 2.27202,0.005 2.6938,2.245033 2.6938,2.245033 3.5562,4.344614 L 791,73.189227 V 74.094614 75 Z"
         id="path4702" />
      <path
         id="path4704"
         style="display:inline;fill:#e9ee1c;fill-opacity:1"
         d="m 694.75168,10.283208 -11.7461,2.732422 -6.28906,2.367187 -6.28711,2.365235 -5.46484,2.75 -5.46484,2.748047 -8.21094,5.328125 c -13.40509,6.947423 -27.44757,24.999858 -31.46094,30.398437 l -7.32812,9.855469 -3.24219,5.189453 C 601.97938,85.696797 598.06488,99.425173 596.43332,113 l -1.37109,11.5 0.0449,10 c -0.31468,4.88531 -0.14099,9.37534 1.25003,14 l 1.20312,4 12.41992,0.73243 10.06954,1.04776 2.61575,0.2808 1.83425,0.28081 2.62695,0.0801 2.6289,0.0781 0.98047,-1.25 0.98243,-1.25 4.66015,-10.2539 4.66016,-10.25391 4.47851,-7.57617 4.48047,-7.57617 8.74432,-10.77241 9.75764,-9.356498 7.85156,-5.867187 c 4.48856,-4.098493 9.60095,-6.706761 15,-9.300781 5.74798,-3.573036 12.14691,-4.513426 18.64844,-5.917969 9.94268,-2.472974 19.14488,-5.123911 29.39648,-5.505859 l 11.89648,-0.619141 5.10352,-8.058594 5.10352,-8.058594 5.77929,-7.675781 5.77735,-7.677734 5.55664,-5.511719 5.55664,-5.511719 -0.41016,-1.226562 -0.4082,-1.226563 -4.92578,-2.917968 -4.92578,-2.917969 -10,-3.769531 -10,-3.767579 -9,-1.7910151 C 728.24059,6.0165858 710.89861,6.5830631 694.75168,10.283208 Z m -295.25195,4.189453 -9,1.578125 -5.17969,1.482422 -5.17969,1.482422 -10.7832,4.179687 c -7.46727,1.995188 -13.48542,5.963901 -19.82032,10.154297 -7.78652,4.091552 -13.4344,10.409021 -19.54101,16.564453 -6.4354,6.693775 -11.43976,14.564877 -16.83789,22.085938 l -5.94226,11.188183 -3.40684,8.634595 -2.54739,8.788547 -1.36523,8.94532 -0.81955,9.0213 -0.50078,14.42205 0.51263,14.34409 1.66313,8.7399 2.13086,8.58398 3.97265,9.9668 3.97071,9.96875 4.83789,8.92969 4.68003,7.68242 5.16372,6.26484 5.00586,5.01953 9.27539,7.5 9.27539,7.5 7.61328,4.15235 8.16091,4.07244 10.55784,4.16193 11.10352,4.08399 5.05859,1.05664 8.48858,1.36846 6.51142,0.50654 9.94141,0.81836 c 2.57506,0.13202 5.14033,0.01 7.71164,-0.11048 l 5.57742,-0.62585 9.71094,-1.01563 4.41601,-1.04101 4.41602,-1.03906 11.23828,-4.39453 11.23633,-4.39454 5.34765,-3.24218 5.34571,-3.24414 4.49023,-3.55664 6.02655,-4.21507 5.47815,-4.29332 10.0871,-9.34318 3.60937,-3.99609 3.84519,-4.54177 3.21731,-4.84886 3.45117,-5.39453 3.25391,-5.84765 3.098,-6.39529 2.59341,-6.5676 c 2.55277,-5.89606 3.31051,-12.18756 4.39257,-18.46289 1.67843,-6.43303 1.95704,-12.79601 1.95704,-19.3711 0.48986,-6.30251 -0.65182,-12.41529 -1.57227,-18.61719 l -1.57422,-10.5957 -3.0293,-9.533202 c -1.19353,-4.641432 -2.6812,-8.946945 -5.10742,-13.033203 l -2.07812,-3.5 -8.33594,-11.689453 c -4.33149,-7.649337 -10.1772,-13.366538 -16.56836,-19.181641 l -8.23437,-7.490234 -4.1875,-3.03125 -4.1875,-3.029297 -8.40821,-4.546875 c -4.79524,-3.157222 -9.96084,-5.07378 -15.33594,-6.902344 -5.13584,-2.082246 -10.5252,-3.179814 -15.90429,-4.410156 -0.97006,-0.267943 -20.84066,-5.632358 -42.97652,-1.746094 z m 497.74609,-1.472656 -1.14844,1.382812 -1.14844,1.384766 0.27539,15.837891 0.2754,15.83789 2.5,1.28125 2.5,1.279297 38.85156,-0.06836 38.84961,-0.06641 0.65039,0.648437 0.64844,0.648438 0.0234,96.792974 0.0234,96.79101 1.34961,1.625 1.34961,1.625 h 13.80469 13.80656 l 1.5723,-1.57226 1.5703,-1.57032 0.016,-96.17968 0.016,-96.17774 0.8418,-1.326172 0.8398,-1.328125 39.5938,-0.171875 39.5918,-0.173828 1.2597,-1.257813 1.2578,-1.257812 -0.2851,-15.732422 -0.2852,-15.734375 -1.0449,-1.257812 L 1093.7562,13 h -98.25584 z m -861.126954,7 -0.574219,0.927734 -0.574218,0.927735 -0.03711,109.296876 -0.03906,109.29687 1.74414,1.27539 1.744141,1.27539 12.558594,-0.0703 12.558593,-0.0703 1.949219,-0.76367 1.951172,-0.76172 -0.287109,-36.98828 -0.28711,-36.98633 1.089844,-4.04297 1.087891,-4.04492 5.748047,-2.56055 c 4.145551,-2.4143 8.624631,-3.1456 13.248046,-4.08594 8.393322,-2.30317 17.108523,-1.64275 25.728513,-1.74804 l 18.23047,-0.22461 1.84897,1.96457 1.2369,1.89831 0.64814,1.20807 1.15983,2.33575 2.26827,4.58939 3.12109,5.85156 9.82032,20.46875 c 4.17051,9.7997 8.71144,19.01082 15.1289,27.4336 l 5.3086,6.96484 4.22265,4.64063 c 2.52668,3.73599 5.60605,5.31747 9.5,7.22265 l 5.27735,2.58203 6,1.97657 c 5.76674,2.59182 11.93021,2.30421 18.125,2.64648 l 12.12695,0.66992 1.62305,-1.62304 1.625,-1.625 -0.0156,-14.17969 -0.0156,-14.17774 -0.94727,-1.5 -0.94922,-1.5 h -9.80859 c -6.30538,0.80318 -9.84573,-0.0238 -14.88477,-3.25781 -5.5783,-2.60868 -8.17312,-7.63353 -11.61523,-12.5 l -6.53711,-9.24219 -3.73242,-7 -3.73047,-7 -2.73234,-6.77599 c -1.14439,-3.29404 -2.03133,-6.42896 -2.03133,-9.88221 v -2.80859 l 4.75,-2.52539 4.75,-2.52539 6.5,-4.00391 6.15048,-4.35343 7.57022,-7.18173 6.96909,-7.88077 3.3356,-6.11727 2.63655,-6.61464 2.02556,-7.09044 1.52624,-7.290166 0.0362,-9.450069 -0.36512,-9.300274 -1.254,-6.949726 -1.90115,-6.550274 -2.85275,-6.449726 -3.15235,-6.25 -4.3457,-5.652344 -4.29577,-5.05512 -4.81751,-4.06988 -4.76562,-3.470703 -5.5,-3.068359 -5.54993,-2.71884 -8.8114,-2.90616 C 150.10033,16.782566 123.46538,20.000025 99.946991,20.000025 Z m 390.666014,28.005859 6.71485,1.035157 6.86328,2.041015 6.86132,2.042969 6.54688,3 6.54687,2.998047 4.5918,3.134765 4.58985,3.134766 7,5.962891 c 4.61682,3.162639 7.91262,7.168763 11.23046,11.552734 l 3.71433,5.849865 3.56888,5.931385 2.79466,6.447522 2.36354,8.05248 1.58933,8.56861 0.8393,14.74193 -1.48136,15 -2.13987,8.50782 -3.68826,8.50781 -3.33789,5.99219 -3.33789,5.99218 -2.49414,3.5 -2.49414,3.5 -4.5625,4.85352 -4.56445,4.85352 -5.38086,4.02539 -5.38086,4.02539 -6.04493,3.41601 -6.04492,3.41602 -6.55808,2.70962 -7.59035,1.41928 -17.81562,1.59452 -17.18438,-0.9285 -5.2461,-0.93359 -5.24609,-0.9336 -7.73777,-2.37605 -8.77004,-4.18254 -7.90052,-4.20249 -7.64441,-5.49087 -4.97265,-4.47266 -4.97266,-4.4707 -6.67068,-8.17124 -5.12424,-9.46157 -2.19922,-5.84375 -2.20117,-5.84571 -1.45117,-6.5 -1.45118,-6.5 -0.53125,-10 c -1.33918,-7.69805 0.42876,-14.694 1.95899,-22.1914 0.62857,-7.19981 2.96016,-13.085934 6.23633,-19.322267 2.24524,-5.941741 6.41781,-9.988882 10.65625,-14.529297 3.7612,-5.058503 8.43723,-8.407563 13.58984,-11.8125 l 6.67774,-4.414062 8.17578,-4.089844 c 4.9977,-3.207591 10.34622,-4.644857 16,-6.095703 l 7.82422,-2.007813 9.28515,-1.033203 c 5.51932,-1.275281 10.53457,-0.83876 16,0.002 z M 71.382538,54.000005 h 45.130862 45.13086 l 4.77734,1.628906 c 4.9185,0.923411 7.64527,4.30805 11.16797,7.603516 l 6.39062,5.978515 1.70807,3.311577 0.54193,4.977486 -0.46484,9.03125 -0.46289,9.03125 -1.2431,3.512521 -2.40729,4.176934 -4.17153,5.00643 -5.50621,4.6713 -4.23677,2.10398 -6.23783,1.27102 -38,0.71875 c -14.41282,1.45237 -29.561616,-1.94223 -43.500005,2.45313 l -5.5,1.73633 -3.130859,0.48828 -3.132812,0.49023 -0.858419,-0.74302 -0.385722,-1.27065 0.496094,-31.839844 0.49414,-31.837891 -0.0134,-2.051976 z m 754.134762,12.556641 -0.32226,1.666015 -0.32031,1.666016 4.0625,10.076172 4.0625,10.076172 v 1.24414 1.244141 l 2.125,3.986328 2.125,3.98437 1.125,0.73438 1.125,0.73437 1.25,0.0156 1.25,0.0156 v -1.51367 -1.515622 l -3.40821,-8.451172 -3.4082,-8.453125 -4.83399,-7.755859 z m -83.01757,15.355468 -4.5,0.292969 -4.5,0.294922 -0.33204,6 -0.33398,6 0.69922,14.470705 0.69726,14.4707 1.77539,-3.4707 1.7754,-3.47071 4.15625,-15.98046 4.15625,-15.978519 -1.79688,-1.314454 z m -16.59766,0.65625 -4.31055,0.189453 -4.3125,0.1875 -8.14648,2.572266 -8.14649,2.574219 -1.64453,2.507812 -1.64258,2.509766 0.0898,3.146484 0.0898,3.148438 4.49219,9.048828 4.49219,9.04687 5.1582,12 5.16016,12 4.00586,11.5 4.0039,11.5 3.61328,6.25 3.61133,6.25 h 1.24609 1.24805 l 0.69922,-3.72656 0.69922,-3.72656 -1.22461,-10.52344 -1.22266,-10.52344 -1.41015,-15 -1.40821,-15 -1.0664,-6 -1.06836,-6 -0.83008,-11.292964 -0.83203,-11.294922 -0.67188,-0.671875 z m 33.25,1.408203 -2.16797,5.761719 -2.16797,5.761719 -0.54297,3.269531 -0.54101,3.271484 1.38281,-0.54687 1.38477,-0.54688 2.25,-5.83789 2.25,-5.837891 V 87.195317 85.117192 L 760.0759,84.54688 Z m 7.89453,1.023438 -1.69531,2.585937 -1.69531,2.587891 -0.65821,4.339844 -0.6582,4.341797 0.93555,1.669926 0.93359,1.66992 2.64648,-0.46875 2.64454,-0.47071 6.5,-1.636714 6.5,-1.636719 3.5,-1.119141 3.5,-1.117187 1.26171,-1.00586 1.26368,-1.005859 -1.12696,-1.357422 -1.125,-1.355469 -9.39843,-3.011718 -9.39844,-3.009766 h -1.96485 z m -77.98828,11.917969 -2.94922,1.52539 c -2.68809,0.905851 -3.64364,2.549536 -5.16211,4.791016 -1.76067,3.21577 -4.54019,5.49088 -7.1543,7.98828 l -4.27929,7 0.66601,2.27734 3.10547,4.5 3.10742,4.5 8.45508,11.5 8.45508,11.5 6.09961,8.24024 6.09766,8.24023 6.5,8.47657 6.5,8.47656 3.28125,4.5332 c 1.81883,3.26436 3.30494,4.20555 6.64934,5.22313 L 731.59933,195 l 1.49686,-1.00209 0.90354,-1.3983 0.39425,-1.80814 -0.39425,-1.90865 -2.88282,-3.69141 -2.88476,-3.69141 -0.66602,-4.5 -0.66601,-4.5 -2.56055,-5.5 -2.56055,-5.5 -7.28906,-15 -7.28711,-15 -8.13281,-16.71093 -8.13281,-16.71094 -0.93946,-0.580078 z m 107.59766,1.082031 -6.07813,2.416015 -6.07812,2.41406 -11.31836,2.96289 c -5.48733,1.18107 -10.22478,1.91745 -14.22461,5.74805 -3.64315,2.66593 -4.46263,6.81733 -6.02735,10.87109 -2.51624,4.8448 -3.35945,9.78624 -4.10351,15.08789 -1.80426,11.05022 -1.09465,22.33755 -1.17774,33.5 -0.88412,10.47822 2.23841,21.49779 -2.44922,31.11719 -0.95966,2.72407 -2.2613,4.62935 -4.33007,6.5 -3.86588,4.30271 -23.95868,1.42775 -27.86914,0.45707 -7.35543,-1.39109 -13.82169,-5.37871 -20.5,-8.59961 l -15,-7.23437 -8.64649,-3.57227 -8.64648,-3.57226 -8.01953,-2.04883 L 644.16769,182 h -2.13476 -2.13477 l -1.41797,3.39258 -1.41601,3.39258 -2.0332,11.28125 -2.03125,11.2832 v 3.39063 3.39062 l 1.09765,2.05079 1.09766,2.05078 3.54101,3.13281 3.54297,3.13476 8.10938,5.83985 c 4.7391,4.06341 10.0912,6.83792 15.61133,9.61523 5.44027,3.36139 11.45323,4.9922 17.5,6.85938 5.37323,2.08306 10.84782,3.21535 16.5,4.07812 8.70344,1.33114 36.55125,2.9102 57,-3.89258 l 12.5,-4.29296 5.5,-2.86524 5.5,-2.86523 9,-5.6543 c 8.30768,-4.07562 14.11855,-10.82512 20.52343,-17.29297 5.70968,-5.24324 10.87218,-10.655 15.12305,-17.08203 l 3.60156,-5.44727 3.76367,-7.5 3.76563,-7.5 2.35937,-6.26757 c 2.31359,-4.75978 3.00659,-9.85333 3.93555,-15 l 1.57617,-8.73243 1.02735,-7.29882 c 0.89715,-3.75303 1.0657,-7.10516 0.36914,-10.81055 -0.10619,-3.41861 -1.94017,-4.92888 -4.12696,-7.34961 l -3.46875,-3.83984 -11.95898,-9.08594 -11.95898,-9.08594 -6.1875,-2.51562 c -2.90356,-1.388054 -5.51726,-2.513675 -8.6875,-2.513675 z M 663.24582,127 l -1.37305,1.65235 -1.37304,1.6543 -3.25,5.5957 -3.25,5.59765 -3.54102,7.46485 -3.54102,7.4668 0.29102,1.96679 0.29102,1.9668 11,3.80859 11,3.8086 16,7.95117 16,7.95117 3.75,0.0586 3.75,0.0566 v -0.92382 -0.92383 l -9.20704,-11.32617 -9.20507,-11.32618 -7.5918,-9.5 -7.59375,-9.5 -4.75195,-6.75 -4.75196,-6.75 h -1.32617 z m -56.08203,48 -1.58203,0.60743 -1.58203,0.60742 -0.0176,1.14258 -0.0156,1.14257 5.16992,11.25 5.16993,11.25 h 0.72461 0.7246 l 1.04493,-1.25781 1.04297,-1.25976 1.57812,-6.80274 1.57813,-6.80469 v -3.90234 -3.90234 l -1.9336,-1.03516 L 617.13058,175 h -4.98242 z"
         sodipodi:nodetypes="ccccccccccccccccccccccccccccccccccccccccccccccccccccccccccccccccccccccccccccccccccccccccccccccccccccccccccccccccccccccccccccccccccccccccccccccccccccccccccccccccccccccccccccccccccccccccccccccccccccccccccccccccccccccccccccccccccccccccccccccccccccccccccccccccccccccccccccccccccccccccccccccccccccccccccccccccccccccccccccccccccccccccccccccccccccccccccccccccccccccccccccccccccccccccccccccccccccccccccccccccccccccccccccccccccccccccccccccccccccccccccccccccccccccccccccccccccccccccccccccccccccccccccccccccccccccccccccccccccccccccccccccccccccccccccc" />
    </g>
  </g>
</svg>
